<svg width="36" height="28" viewBox="0 0 36 28" fill="none" xmlns="http://www.w3.org/2000/svg">
<g id="fa6-solid:hands-holding" clip-path="url(#clip0_59_16030)">
<path id="Vector" d="M4.5 5.6875C4.5 4.47891 3.49312 3.5 2.25 3.5C1.00687 3.5 0 4.47891 0 5.6875V17.8008C0 19.1953 0.568125 20.5297 1.58062 21.5141L7.2 26.9773C7.875 27.6336 8.79187 28 9.74813 28H13.5C14.9906 28 16.2 26.8242 16.2 25.375V21.0602C16.2 19.4359 15.5362 17.8773 14.355 16.7289L12.9319 15.3453L12.0769 14.5141L10.2769 12.7641C9.57375 12.0805 8.43187 12.0805 7.72875 12.7641C7.02562 13.4477 7.02562 14.5578 7.72875 15.2414L9.52875 16.9914L10.3837 17.8227C11.0025 18.4242 10.9012 19.4195 10.1756 19.8898C9.63 20.2453 8.89875 20.1742 8.43187 19.7203L5.55187 16.9258C4.87687 16.2695 4.5 15.3781 4.5 14.4484V7.875V5.6875ZM31.5 5.6875V14.4484C31.5 15.3781 31.1231 16.2695 30.4481 16.9258L27.5737 19.7203C27.1069 20.1742 26.3756 20.2453 25.83 19.8898C25.1044 19.4195 25.0031 18.4187 25.6219 17.8227L26.4769 16.9914L28.2769 15.2414C28.98 14.5578 28.98 13.4477 28.2769 12.7641C27.5737 12.0805 26.4319 12.0805 25.7287 12.7641L23.9287 14.5141L23.0737 15.3453L21.6506 16.7289C20.4694 17.8773 19.8056 19.4359 19.8056 21.0602V25.375C19.8056 26.8242 21.015 28 22.5056 28H26.2575C27.2137 28 28.1306 27.6336 28.8056 26.9773L34.425 21.5141C35.4375 20.5297 36.0056 19.1953 36.0056 17.8008V5.6875C36.0056 4.47891 34.9987 3.5 33.7556 3.5C32.5125 3.5 31.5056 4.47891 31.5056 5.6875H31.5Z" fill="white"/>
</g>
<defs>
<clipPath id="clip0_59_16030">
<rect width="36" height="28" fill="white"/>
</clipPath>
</defs>
</svg>
